<svg xmlns="http://www.w3.org/2000/svg" width="19.338" height="14.027" viewBox="0 0 19.338 14.027">
  <g id="Group_56" data-name="Group 56" transform="translate(0.375 0.375)">
    <g id="Group_28" data-name="Group 28" transform="translate(0 0)">
      <path id="Path_27" data-name="Path 27" d="M16.433,7.139l-5.4,2.991a2.489,2.489,0,0,1-1.235.328H9.488A2.5,2.5,0,0,1,8.207,10.1L1.816,6.268a.92.92,0,0,1,0-1.579L8.207.855A2.5,2.5,0,0,1,9.488.5h.28A2.5,2.5,0,0,1,11.05.855l6.83,3.961A2.489,2.489,0,0,1,19.088,6.95V7.8A2.49,2.49,0,0,1,17.8,9.984l-6.78,3.485a2.493,2.493,0,0,1-1.2.308H9.488a2.5,2.5,0,0,1-1.281-.355l-6.5-3.9A2.488,2.488,0,0,1,.5,7.389V7.022a.873.873,0,0,1,1.323-.749" transform="translate(-0.5 -0.5)" fill="none" stroke="#000" stroke-linecap="round" stroke-linejoin="round" stroke-width="0.75"/>
    </g>
  </g>
</svg>
