<svg width="28" height="14" viewBox="0 0 28 14" fill="none" xmlns="http://www.w3.org/2000/svg">
<path fill-rule="evenodd" clip-rule="evenodd" d="M2.79297 13.8952H25.2419C26.778 13.8952 28 12.6383 28 11.1022V2.89777C28 1.36168 26.7781 0.104797 25.2419 0.104797H2.79297C1.25689 0.104797 0 1.36168 0 2.89777V11.1022C0 12.6383 1.25689 13.8952 2.79297 13.8952ZM20.6682 5.23674H22.3441V1.6058H24.753C25.6956 1.6058 26.4288 2.37393 26.4288 3.28161V10.718C26.4288 11.6257 25.6957 12.3938 24.753 12.3938H3.24649C2.33885 12.3938 1.57069 11.6257 1.57069 10.718V3.28161C1.57069 2.37397 2.33881 1.6058 3.24649 1.6058H4.85242V7.89023H6.56323V1.6058H10.1592V5.23674H11.87V1.6058H15.5708V7.78543H17.2466V1.6058H20.668V5.23674H20.6682Z" fill="black" fill-opacity="0.7"/>
</svg>
