<svg width="19" height="17" viewBox="0 0 19 17" fill="none" xmlns="http://www.w3.org/2000/svg">
<path d="M14.8031 9.71601L13.4787 9.31608C13.361 9.2808 13.2315 9.3102 13.1432 9.38666C12.172 10.2512 10.9359 10.7511 9.60562 10.7511C8.27534 10.7511 7.04513 10.2453 6.06802 9.38666C5.97972 9.3102 5.85023 9.2808 5.7325 9.31608L4.62001 9.65132C1.74755 10.8276 1 14.0093 1 15.8384C1 15.9913 1.14127 16.1207 1.31785 16.1207L18.0876 16.1619C18.2642 16.1619 18.4114 16.0384 18.4114 15.8854C18.4114 14.0623 17.7992 10.6041 14.8031 9.71601V9.71601Z" stroke="#C1C1C1" stroke-linecap="round" stroke-linejoin="round"/>
<path d="M9.70572 9.23376C11.692 9.23376 13.3022 7.39057 13.3022 5.11688C13.3022 2.84319 11.692 1 9.70572 1C7.71945 1 6.10925 2.84319 6.10925 5.11688C6.10925 7.39057 7.71945 9.23376 9.70572 9.23376Z" stroke="#C1C1C1" stroke-linecap="round" stroke-linejoin="round"/>
</svg>
